<svg width="28" height="30" viewBox="0 0 28 30" fill="none" xmlns="http://www.w3.org/2000/svg">
  <path d="M14.0796 15.9925C10.4888 15.9925 7.56628 12.8887 7.56628 9.07519C7.56628 5.26166 10.4888 2.1579 14.0796 2.1579C17.6704 2.1579 20.5928 5.26166 20.5928 9.07519C20.5928 12.8887 17.6704 15.9925 14.0796 15.9925ZM14.0796 3.96241C11.4289 3.96241 9.2654 6.26015 9.2654 9.07519C9.2654 11.8902 11.4289 14.188 14.0796 14.188C16.7302 14.188 18.8937 11.8902 18.8937 9.07519C18.8937 6.26015 16.7302 3.96241 14.0796 3.96241Z" fill="black"/>
  <path d="M23.8101 28.0226C23.3457 28.0226 22.9605 27.6135 22.9605 27.1203C22.9605 22.9699 18.9733 19.6015 14.0798 19.6015C9.18637 19.6015 5.19912 22.9699 5.19912 27.1203C5.19912 27.6135 4.81398 28.0226 4.34956 28.0226C3.88513 28.0226 3.5 27.6135 3.5 27.1203C3.5 21.9835 8.24619 17.797 14.0798 17.797C19.9134 17.797 24.6596 21.9835 24.6596 27.1203C24.6596 27.6135 24.2745 28.0226 23.8101 28.0226Z" fill="black"/>
</svg>
