<svg width="28" height="30" viewBox="0 0 28 30" fill="none" xmlns="http://www.w3.org/2000/svg">
  <path d="M8.61943 19.2556C8.40421 19.2556 8.18899 19.1714 8.01908 18.991C7.69058 18.6421 7.69058 18.0647 8.01908 17.7158L11.6439 13.8662C11.8251 13.6737 12.063 13.5774 12.3235 13.6015C12.5727 13.6256 12.7993 13.7699 12.9465 13.9985L14.1812 15.9714L18.2024 11.7007C18.5309 11.3519 19.0747 11.3519 19.4031 11.7007C19.7316 12.0496 19.7316 12.6271 19.4031 12.9759L14.6456 18.0286C14.4644 18.221 14.2265 18.3173 13.966 18.2932C13.7168 18.2692 13.4902 18.1248 13.343 17.8962L12.1083 15.9233L9.21978 18.991C9.04987 19.1714 8.83465 19.2556 8.61943 19.2556Z" fill="#00B894"/>
  <path d="M18.8141 15.6466C18.3497 15.6466 17.9646 15.2376 17.9646 14.7444V13.2406H16.5487C16.0842 13.2406 15.6991 12.8316 15.6991 12.3384C15.6991 11.8451 16.0842 11.4361 16.5487 11.4361H18.8141C19.2786 11.4361 19.6637 11.8451 19.6637 12.3384V14.7444C19.6637 15.2376 19.2786 15.6466 18.8141 15.6466Z" fill="#00B894"/>
  <path d="M17.115 28.2782H10.3186C4.16776 28.2782 1.53979 25.4873 1.53979 18.9549V11.7369C1.53979 5.20455 4.16776 2.41357 10.3186 2.41357H17.115C23.2658 2.41357 25.8938 5.20455 25.8938 11.7369V18.9549C25.8938 25.4873 23.2658 28.2782 17.115 28.2782ZM10.3186 4.21809C5.09661 4.21809 3.23891 6.19102 3.23891 11.7369V18.9549C3.23891 24.5008 5.09661 26.4737 10.3186 26.4737H17.115C22.337 26.4737 24.1947 24.5008 24.1947 18.9549V11.7369C24.1947 6.19102 22.337 4.21809 17.115 4.21809H10.3186Z" fill="#00B894"/>
</svg>
