<svg width="28" height="29" viewBox="0 0 28 29" fill="none" xmlns="http://www.w3.org/2000/svg">
  <path d="M18.8141 18.4586C18.5989 18.4586 18.3837 18.3744 18.2138 18.194L14.1926 13.9233L12.9579 15.8962C12.8219 16.1248 12.5841 16.2692 12.3349 16.2932C12.0743 16.3173 11.8251 16.221 11.6552 16.0286L8.03043 12.1789C7.70193 11.8301 7.70193 11.2526 8.03043 10.9037C8.35892 10.5549 8.90264 10.5549 9.23114 10.9037L12.1196 13.9714L13.3543 11.9985C13.4903 11.7819 13.7168 11.6376 13.9773 11.6015C14.2379 11.5774 14.4871 11.6737 14.657 11.8662L19.4145 16.9188C19.743 17.2677 19.743 17.8451 19.4145 18.194C19.2446 18.3744 19.0294 18.4586 18.8141 18.4586Z" fill="#D63031"/>
  <path d="M18.8141 18.4587H16.5487C16.0842 18.4587 15.6991 18.0497 15.6991 17.5564C15.6991 17.0632 16.0842 16.6542 16.5487 16.6542H17.9646V15.1504C17.9646 14.6572 18.3497 14.2482 18.8141 14.2482C19.2786 14.2482 19.6637 14.6572 19.6637 15.1504V17.5564C19.6637 18.0497 19.2786 18.4587 18.8141 18.4587Z" fill="#D63031"/>
  <path d="M17.115 27.4812H10.3186C4.16776 27.4812 1.53979 24.6903 1.53979 18.1579V10.9399C1.53979 4.40755 4.16776 1.61658 10.3186 1.61658H17.115C23.2658 1.61658 25.8938 4.40755 25.8938 10.9399V18.1579C25.8938 24.6903 23.2658 27.4812 17.115 27.4812ZM10.3186 3.42109C5.09661 3.42109 3.23891 5.39402 3.23891 10.9399V18.1579C3.23891 23.7038 5.09661 25.6767 10.3186 25.6767H17.115C22.337 25.6767 24.1947 23.7038 24.1947 18.1579V10.9399C24.1947 5.39402 22.337 3.42109 17.115 3.42109H10.3186Z" fill="#D63031"/>
</svg>
