<svg width="28" height="30" viewBox="0 0 28 30" fill="none" xmlns="http://www.w3.org/2000/svg">
  <path d="M22.4845 14.7895H18.6105C18.1461 14.7895 17.761 14.3805 17.761 13.8872V5.4782C17.761 4.58797 18.0895 3.7579 18.6785 3.13234C19.2675 2.50677 20.0491 2.1579 20.8874 2.1579H20.8987C22.3146 2.16993 23.6512 2.7594 24.6707 3.83008C25.6902 4.92481 26.2452 6.36842 26.2452 7.87218V10.7835C26.2566 13.1774 24.7387 14.7895 22.4845 14.7895ZM19.4601 12.985H22.4845C23.7985 12.985 24.5574 12.1789 24.5574 10.7835V7.87218C24.5574 6.8376 24.1723 5.85113 23.4813 5.10527C22.7904 4.38346 21.8615 3.97444 20.8987 3.96241C20.8987 3.96241 20.8987 3.96241 20.8874 3.96241C20.5136 3.96241 20.1511 4.1188 19.8792 4.40752C19.6074 4.69624 19.4601 5.06917 19.4601 5.4782V12.985Z" fill="#292D32"/>
  <path d="M10.6811 28.7203C10.1487 28.7203 9.65033 28.5038 9.27653 28.0947L7.39617 26.0857C7.29423 25.9774 7.13565 25.9654 7.02237 26.0617L5.08538 27.6015C4.48503 28.0827 3.6921 28.1669 3.01246 27.806C2.33281 27.4451 1.9137 26.7233 1.9137 25.9173V7.87218C1.9137 4.2391 3.87334 2.1579 7.29423 2.1579H20.8871C21.3516 2.1579 21.7367 2.56692 21.7367 3.06015C21.7367 3.55339 21.3516 3.96241 20.8871 3.96241C20.1056 3.96241 19.4712 4.63609 19.4712 5.46617V25.9173C19.4712 26.7233 19.0521 27.4451 18.3725 27.806C17.6928 28.1669 16.8999 28.0947 16.2995 27.6135L14.3625 26.0737C14.2493 25.9774 14.0907 26.0015 14.0001 26.0977L12.0971 28.1188C11.7119 28.5038 11.2135 28.7203 10.6811 28.7203ZM7.18095 24.197C7.70202 24.197 8.21175 24.4015 8.59688 24.8226L10.4772 26.8316C10.5452 26.9038 10.6358 26.9158 10.6811 26.9158C10.7264 26.9158 10.8171 26.9038 10.885 26.8316L12.788 24.8105C13.4903 24.0647 14.6004 23.9925 15.382 24.6301L17.3077 26.1579C17.4323 26.2541 17.5456 26.2181 17.6022 26.182C17.6588 26.1459 17.7608 26.0737 17.7608 25.9173V5.46617C17.7608 4.92482 17.8854 4.40752 18.1006 3.96241H7.2829C4.76821 3.96241 3.60149 5.20151 3.60149 7.87218V25.9173C3.60149 26.0857 3.70343 26.1579 3.76007 26.194C3.82803 26.2301 3.94131 26.2541 4.05458 26.1579L5.99157 24.618C6.34273 24.3414 6.76184 24.197 7.18095 24.197Z" fill="#292D32"/>
  <path d="M13.4341 17.5925C12.7998 17.5925 12.3014 17.0511 12.3014 16.3895C12.3014 15.7278 12.8111 15.1865 13.4341 15.1865C14.0571 15.1865 14.5669 15.7278 14.5669 16.3895C14.5669 17.0511 14.0571 17.5925 13.4341 17.5925Z" fill="#292D32"/>
  <path d="M7.92864 12.7203C7.29431 12.7203 6.7959 12.1789 6.7959 11.5173C6.7959 10.8556 7.30563 10.3143 7.92864 10.3143C8.55165 10.3143 9.06139 10.8556 9.06139 11.5173C9.06139 12.1789 8.55165 12.7203 7.92864 12.7203Z" fill="#292D32"/>
  <path d="M7.58891 18.0736C7.37369 18.0736 7.15847 17.9894 6.98856 17.8089C6.66006 17.4601 6.66006 16.8826 6.98856 16.5337L13.1733 9.96533C13.5018 9.61646 14.0455 9.61646 14.374 9.96533C14.7025 10.3142 14.7025 10.8916 14.374 11.2405L8.18926 17.8089C8.03068 17.9774 7.80413 18.0736 7.58891 18.0736Z" fill="#292D32"/>
</svg>
