<svg width="28" height="30" viewBox="0 0 28 30" fill="none" xmlns="http://www.w3.org/2000/svg">
  <path d="M17.3416 28.0226H11.2248C5.62901 28.0226 3.25024 25.4842 3.25024 19.5534V14.1519C3.25024 13.6587 3.63538 13.2496 4.0998 13.2496C4.56423 13.2496 4.94936 13.6587 4.94936 14.1519V19.5534C4.94936 24.4737 6.59184 26.2181 11.2248 26.2181H17.3302C21.9632 26.2181 23.6056 24.4737 23.6056 19.5534V14.1519C23.6056 13.6587 23.9908 13.2496 24.4552 13.2496C24.9196 13.2496 25.3048 13.6587 25.3048 14.1519V19.5534C25.3161 25.4842 22.926 28.0226 17.3416 28.0226Z" fill="#292D32"/>
  <path d="M14.2832 15.9925C13.0371 15.9925 11.9044 15.4752 11.1001 14.5248C10.2959 13.5744 9.92209 12.3353 10.0467 11.012L10.8056 2.97594C10.8509 2.5188 11.2134 2.1579 11.6552 2.1579H16.9451C17.3869 2.1579 17.7493 2.50677 17.7947 2.97594L18.5536 11.012C18.6782 12.3353 18.3044 13.5744 17.5001 14.5248C16.6619 15.4752 15.5292 15.9925 14.2832 15.9925ZM12.4141 3.96241L11.7345 11.1925C11.6552 11.9985 11.8817 12.7564 12.3575 13.3098C13.3203 14.4406 15.246 14.4406 16.2088 13.3098C16.6846 12.7444 16.9111 11.9865 16.8318 11.1925L16.1522 3.96241H12.4141Z" fill="#292D32"/>
  <path d="M21.4307 15.9925C19.1313 15.9925 17.081 14.0196 16.8431 11.5895L16.0502 3.15639C16.0275 2.90376 16.1068 2.65113 16.2654 2.45865C16.424 2.26617 16.6505 2.1579 16.8998 2.1579H20.3546C23.6849 2.1579 25.2367 3.6376 25.7012 7.27068L26.0183 10.615C26.1543 12.0346 25.7465 13.382 24.8743 14.4045C24.0021 15.4271 22.7787 15.9925 21.4307 15.9925ZM17.8399 3.96241L18.5422 11.409C18.6895 12.9128 20.0035 14.188 21.4307 14.188C22.2916 14.188 23.0619 13.8391 23.6169 13.2015C24.1606 12.5639 24.4098 11.7098 24.3305 10.7955L24.0134 7.48722C23.6622 4.76842 22.8353 3.96241 20.3546 3.96241H17.8399Z" fill="#292D32"/>
  <path d="M7.07883 15.9925C5.73087 15.9925 4.5075 15.4271 3.63529 14.4045C2.76308 13.382 2.35529 12.0346 2.49122 10.615L2.79706 7.30677C3.27281 3.6376 4.82467 2.1579 8.15494 2.1579H11.6098C11.8477 2.1579 12.0742 2.26617 12.2441 2.45865C12.4141 2.65113 12.482 2.90376 12.4594 3.15639L11.6664 11.5895C11.4286 14.0196 9.3783 15.9925 7.07883 15.9925ZM8.15494 3.96241C5.67423 3.96241 4.84733 4.75639 4.48485 7.51128L4.17901 10.7955C4.08839 11.7098 4.34892 12.5639 4.89264 13.2015C5.43635 13.8391 6.20662 14.188 7.07883 14.188C8.50609 14.188 9.8314 12.9128 9.96733 11.409L10.6696 3.96241H8.15494Z" fill="#292D32"/>
  <path d="M17.1151 28.0226H11.4514C10.9869 28.0226 10.6018 27.6135 10.6018 27.1203V24.1128C10.6018 21.5865 11.9045 20.203 14.2832 20.203C16.662 20.203 17.9646 21.5865 17.9646 24.1128V27.1203C17.9646 27.6135 17.5795 28.0226 17.1151 28.0226ZM12.3009 26.218H16.2655V24.1128C16.2655 22.597 15.7105 22.0075 14.2832 22.0075C12.856 22.0075 12.3009 22.597 12.3009 24.1128V26.218Z" fill="#292D32"/>
</svg>
