<svg width="1440" height="1024" viewBox="0 0 1440 1024" fill="none" xmlns="http://www.w3.org/2000/svg">
  <rect x="1101" y="511.907" width="404.471" height="599.699" transform="rotate(-35.6793 1101 511.907)" fill="#34495E"/>
  <rect x="1101" y="511.907" width="404.471" height="599.699" transform="rotate(-35.6793 1101 511.907)" fill="#1E1242" fill-opacity="0.14"/>
  <rect x="-343" y="711.429" width="440.337" height="620.224" transform="rotate(-38.8855 -343 711.429)" fill="#34495E"/>
  <rect x="-343" y="711.429" width="440.337" height="620.224" transform="rotate(-38.8855 -343 711.429)" fill="#00CEC9" fill-opacity="0.02"/>
  <rect x="127" y="40.0657" width="380.956" height="670.864" transform="rotate(-68.3437 127 40.0657)" fill="#34495E"/>
  <rect x="127" y="40.0657" width="380.956" height="670.864" transform="rotate(-68.3437 127 40.0657)" fill="#780242" fill-opacity="0.08"/>
  <ellipse cx="1368" cy="15.5" rx="183" ry="157.5" fill="#34495E"/>
  <ellipse cx="1368" cy="15.5" rx="183" ry="157.5" fill="#00CEC9" fill-opacity="0.12"/>
  <ellipse cx="0.492306" cy="218.092" rx="200.392" ry="201.049" transform="rotate(4.79364 0.492306 218.092)" fill="#34495E"/>
  <ellipse cx="0.492306" cy="218.092" rx="200.392" ry="201.049" transform="rotate(4.79364 0.492306 218.092)" fill="#1E1242" fill-opacity="0.16"/>
  <ellipse cx="1019" cy="1003" rx="189" ry="191" fill="#34495E"/>
  <ellipse cx="1019" cy="1003" rx="189" ry="191" fill="#780242" fill-opacity="0.06"/>
</svg>
